<?xml version="1.0" encoding="UTF-8"?>
<svg id="Layer_2" xmlns="http://www.w3.org/2000/svg" version="1.1" viewBox="0 0 1506.8 564.8">
  <!-- Generator: Adobe Illustrator 29.8.2, SVG Export Plug-In . SVG Version: 2.1.1 Build 3)  -->
  <defs>
    <style>
      .st0 {
        fill: #0069b4;
      }

      .st1 {
        isolation: isolate;
      }

      .st2 {
        fill-rule: evenodd;
      }
    </style>
  </defs>
  <g>
    <path class="st0" d="M526,59.7c.2,57.6.2,115.2.2,172.9H51.5V59.9c158.1-.2,316.3-.2,474.5-.2M320.4,64.9h-31.4v162.6h231.9V64.9h-200.6M137,193.6h-35.2v4.8h136.6v-4.8h-101.3M136.4,185.6h-28.7v4.8h124.7v-4.8h-95.9M132.5,109.8c12.2-3.7,24.3-7.4,36.5-11.1.7-.2,1.5-.2,2.2,0,16.7,5,33.3,10.1,49.9,15.1,1.7.5,3.4,1,5.2,1.5,0-1.5,0-2.7,0-3.9,0-1.1-.4-1.4-1.3-1.6-17.9-5.5-35.9-11-53.8-16.5-.7-.2-1.6-.2-2.3,0-7.7,2.3-15.3,4.7-22.9,7-10.2,3.1-20.4,6.3-30.6,9.4-.5.2-1.3.7-1.3,1.2-.2,1.4,0,2.8,0,4.4,6.2-1.9,12.3-3.8,18.6-5.6M215.3,182.5h10.9v-4.7h-112.1v4.7h101.2M215.9,123.1h10.3v-4.7h-112.1v4.7h101.9M215.7,115.1c-14.7-4.6-29.5-9.1-44.3-13.6-.8-.3-1.8-.3-2.6,0-9.4,2.8-18.9,5.7-28.3,8.6-5.6,1.7-11.2,3.4-16.7,5.1,4.4.2,8.8.2,13.2.2.3,0,.6-.2.9-.3,10.3-3.1,20.6-6.1,30.8-9.2.8-.2,1.8-.3,2.6,0,8.1,2.4,16.2,4.9,24.3,7.4,2.4.7,4.8,1.8,7.3,2,4.2.3,8.5,0,12.7-.2M211.6,163c0,2.7,0,5.5,0,8.2,0,2.2,1.1,3.6,2.9,3.9,3.2.6,5.2-1.1,5.2-4.3v-40.7c0-2.9-1.4-4.2-4.3-4.1-2.7,0-3.9,1.5-3.9,4.4v32.6M125.3,137.5v33c0,.8.4,2-.9,2s-.8-1.3-.8-2c0-14.3,0-28.6,0-42.8s0-1,0-1.6h-3c0,.2-.1.3-.1.4,0,14.9,0,29.8,0,44.8,0,2.7,1.6,4,4.2,3.9,2.5,0,3.7-1.3,3.7-4v-43.7c0-.5,0-.9,0-1.4h-3v11.4M141.4,154.3v-5.4h.2c.9,8.8,1.8,17.5,2.7,26.2h2.5v-49.1h-2.5v22.7h-.3c-.9-7.6-1.7-15.2-2.6-22.8h-2.2v49.1h2.2v-20.8M179.5,138.1v2.4h3.2v-4.9c0-2.3,0-4.6-.2-6.9-.2-2-1.6-2.8-3.9-2.7-2,0-3.6,1.3-3.6,3,0,6-.7,12.1,1.3,17.9,2.7,7.7,3.8,15.5,3.2,23.6,0,.6-.3,1.3-.4,1.9h-.7c-.1-.7-.4-1.4-.4-2,0-3.7,0-7.4,0-11.1h-2.9c0,.3,0,.5,0,.6v11.6c0,2.2,1.2,3.4,3.3,3.6,2.5.2,4.3-1,4.3-3.3,0-6.2.8-12.5-1.3-18.6-2.6-7.6-3.9-15.3-3.3-23.3,0-.5.4-1,.6-1.5.3.5.8,1,.8,1.5,0,2.6,0,5.2,0,8.1M201.2,168.2v-8.8h-3.1v11.9c0,.4-.5.8-.7,1.3-.4-.4-.9-.6-1.2-1.1-.2-.3,0-.8,0-1.3v-39.3c0-.9-.3-2.3,1.1-2.2,1.4,0,.8,1.4.8,2.2,0,3.2,0,6.4,0,9.7h3.1v-10.9c0-.3,0-.5-.2-.8-.6-2.2-2.1-3.1-4.6-2.8-1.8.2-3,1.5-3,3.6v42.2c0,1.9,1.2,3.2,3,3.4,2.4.3,4-.5,4.4-2.5.3-1.4.2-2.8.3-4.5M157.7,170.1v4.9h7.5v-2.6h-4v-22c1.1,0,2.1,0,3-.1v-2.7c-1.1,0-2-.1-3-.2v-19h3v-2.4h-6.5v44.1h0Z"/>
    <path class="st0" d="M533.6,316.3c-.4,2-.8,3.9-1.3,5.7-1.3,5.3-3.8,9.9-7.3,14.2-3.8,4.7-8.4,8.2-14,10.7-3.7,1.7-7.6,2.7-11.6,3.2-6.2.7-12.2,0-18-2.3-6.3-2.4-11.6-6.1-15.9-11.4-4.4-5.3-7.3-11.3-8.4-18-.6-3.8-.2-7.9-.1-11.8.1-4.2,1.6-8.2,3.4-11.9,2.4-4.7,5.5-8.8,9.5-12.3,4.8-4,10.1-6.8,16.1-8.2,8-1.9,15.9-1.3,23.6,1.7,5.1,2,9.6,5,13.3,9,5.1,5.5,8.7,11.8,10,19.3.2.9.3,1.8.5,2.7.1,3.1.1,6.1.1,9.3M513,317.9c1.1-3.1,1.2-6.2.6-9.4-1.5-8.6-9.1-14.8-17.6-15.3-5.4-.3-10.1,1.6-13.9,5.4-4.2,4.3-6.3,9.4-5.5,15.6.7,5.5,3.3,9.7,7.7,12.9,4.6,3.3,9.8,4.5,15.3,3,6.4-1.7,10.9-5.7,13.3-12.3h0Z"/>
    <path class="st0" d="M50.2,447.9c.3-1.2.6-2.3,1-3.4,1.5-4.7,4.4-7.9,9.3-8.8,7.7-1.5,13.4,1.6,15.6,9.3,1.2,4.2.9,8.3-.6,12.4-1.6,4.7-6.4,8.1-11.2,8.1-2.8,0-5.6,0-8-1.8-3.4-2.4-5.3-5.7-5.9-9.8-.1-2-.1-3.9-.1-6M56.3,454.6c.5,1.1.9,2.3,1.6,3.4,2.4,3.8,7.7,4.3,10.5.7,3.3-4.1,3.2-11.1.7-15.3-2.8-4.9-9.1-4.1-11.4-.3-2.1,3.6-2.1,7.3-1.5,11.5h0Z"/>
    <path class="st0" d="M50.2,496.4c.8-2.4,1.3-4.8,2.8-6.8,2.7-3.5,6.1-5.5,10.5-5.6,2.5,0,5,.4,7.6.6.4,0,.7.3,1.1.5-.4,1.6-.8,3.1-1.2,4.6-6.1-2.6-10.6-.9-12.9,2-3.4,4.3-3,10.5-.2,14.3,2.8,3.7,7.8,4.3,13.1,2.2.3,1.6.6,3.1.9,4.8-1.3.3-2.4.5-3.6.9-2.2.1-4.4.1-6.7,0-4.3-.7-7.6-2.6-9.5-6.5-.8-1.6-1.3-3.3-1.9-5v-6h0Z"/>
    <path class="st0" d="M81.1,514c-3.8-1.2-6.4-3.3-7.4-7.1-1.2-4.5-.6-8.8,2.6-12.2,1.1-1.2,3-2,4.6-2.4,3-.8,6-.5,8.7,1.2,2.4,1.6,3.8,3.9,4.1,6.6.4,3.5.5,7-1.8,10.1-1.5,1.9-3.4,3.2-5.8,3.8-1.7.1-3.3.1-5.1.1M79.3,499.7c-.9,3.1-.8,6,1.2,8.6,1.5,1.9,4.2,2.2,5.8.4,2.4-2.7,2.6-5.9,1.4-9.2-.8-2.2-2-3.3-3.9-3.3-2.3,0-3.6.9-4.5,3.5h0Z"/>
    <path class="st0" d="M225,514c-2.3-.9-4.3-1.9-5.7-3.9-2-2.7-2.2-5.9-1.8-9,.5-4.3,2.6-7.6,7-8.8,5.6-1.6,11.5.3,13.2,6.9,1.1,4.2.8,8.4-2.5,11.7-1.3,1.3-3.1,1.9-4.8,2.9-1.8.1-3.5.1-5.4.1M231.6,507c1.3-3,1.2-5.9-.4-8.7-.7-1.3-1.7-2-3.3-2.1-1.7,0-3,.5-3.8,2-1.7,3-1.8,6.1-.3,9.2,1,2,2.3,2.7,4.5,2.5,1.6-.2,2.5-1.3,3.3-2.8Z"/>
    <path class="st0" d="M194.6,514c-1.3-.5-2.5-.9-3.7-1.4.4-1.4.7-2.7,1.1-4.2.6.3,1.1.6,1.6.7,1.6.3,3.3.6,5,.6s1.6-.9,1.6-1.4c0-.8-.4-1.9-1-2.3-1.2-.8-2.6-1.3-3.9-2-2.9-1.5-4.3-4-3.7-6.9.6-2.7,3.4-5.1,6.3-5.1,2,0,4.1.4,6.1.7.8.1,1.1.7.7,1.6-.4.9-.6,1.9-.8,2.5-2-.2-3.8-.5-5.5-.5-.5,0-1.4,1-1.5,1.6,0,.5.6,1.4,1.3,1.8,1.2.8,2.6,1.3,3.9,1.9,3.2,1.4,3.9,4.1,3.7,6.4-.4,3.3-2.4,5-5.7,5.8-1.8.1-3.5.1-5.4.1h0Z"/>
    <path class="st0" d="M178.4,514c-1-.3-1.9-.5-2.7-.8-.4-.2-.9-.7-.9-1.1.2-1.2.6-2.4.8-3.2,2.1.4,4,.7,5.9,1,1.3.2,2.3-.6,2.5-1.7.3-1.4-.9-2.2-2-2.7-1.4-.7-2.8-1.3-4.2-2-2-1.1-2.9-3-2.7-5.2.3-2.8,1.8-4.9,4.7-5.8,2.6-.8,5.9-.6,8.7.8-.3,1.3-.6,2.7-1,4-1.2-.4-2.4-1-3.6-1.1-1,0-2.1.3-2.9.7-.4.2-.5,1.5-.2,2,.5.7,1.4,1.2,2.1,1.6,1.5.9,3.2,1.4,4.4,2.6,3.6,3.4,2.2,8.8-2.5,10.4-.4.1-.7.2-1.1.5-1.8.1-3.5.1-5.4.1h0Z"/>
    <path class="st0" d="M257.2,324.1c2.7,5.6,7.2,8,13.2,8.2,3.3.1,6.6-.2,9.6-1.7,2.5-1.2,4-3.3,5.4-5.7.2-.3.7-.7,1-.7,2.1.1,4.2.4,6.3.6,2.6.3,5.1.6,7.7.9,2.5.3,4.9.5,7.6.7-.7,3.3-2.2,6.2-4,8.9-5.3,8-12.8,12.5-22.2,14-4,.6-8.1,1-12.1.9-6.6-.1-13.1-.9-19-4.1-7.6-4.1-13-10.2-16.2-18.1-1.9-4.7-2.7-9.4-2.9-14.5-.3-7.9,1.3-15.4,5.1-22.3,5.1-9.3,13.1-15.1,23.6-17.2,4.7-1,9.3-1.2,14-.9,8,.5,15.6,2.7,21.8,8,6.2,5.2,10.2,12,11.9,19.9,1,4.8,1.4,9.6,1.3,14.7h-54.2c.8,2.9,1.5,5.5,2.3,8.3M257.6,297.7c-.5,1.3-.9,2.5-1.4,3.8h31c-2.5-7.7-6.7-11-13.2-11.8-6.8-.8-12.6,1.5-16.4,8h0Z"/>
    <path class="st0" d="M186.9,273.8c.5,0,.9-.3,1.2-.3,6.8.1,13.5,1,19.2,5.1,4.9,3.6,8,8.4,9,14.3.7,4.3,1,8.8,1,13.2.1,13.3,0,26.5,0,39.8v1.8h-23.6v-1.7c0-12.1,0-24.1,0-36.2,0-3.2-.3-6.4-1.5-9.5-1.5-4-5.3-6.3-9.1-6.9-3.6-.5-6.9.2-9.9,2.2-3.1,2.2-5,5.2-5.6,8.8-.5,2.8-.6,5.8-.7,8.7,0,10.9,0,21.8,0,32.7v1.8h-23.5v-72.3h23.4v8.4c5.5-6.4,11.8-10.1,20-10.1h0Z"/>
    <path class="st0" d="M74.7,275.4c.2.6.4,1.1.4,1.7,0,13.7-.2,27.4,0,41.1.1,6.6,4.5,11,11,11.9,3.8.5,7.3,0,10.6-2.1,2.8-1.8,4.2-4.5,4.8-7.7.3-1.5.3-3,.4-4.4v-40.4h23.6v1.6c0,14.9,0,29.7,0,44.6,0,5.6-1.4,10.8-4.7,15.4-3.8,5.2-8.7,8.6-14.7,10.6-4.3,1.4-8.8,2.3-13.4,2.3-3.6,0-7.1.2-10.7,0-7.7-.6-15.1-2.6-21.1-7.7-5.2-4.3-8.4-9.8-9-16.7-.2-2.8-.3-5.6-.3-8.3,0-13.4,0-26.7,0-40.1v-1.9h23.2,0Z"/>
    <path class="st0" d="M325.3,329.9c1.2-2,2.4-3.9,3.7-6,1.7,1.2,3.3,2.4,4.9,3.5,4.1,2.8,8.6,4.3,13.5,4.2,2.7,0,5.5-.3,7.5-2.7,1.7-2,1.9-5.9-.8-7.1-2.9-1.3-5.8-2.3-8.8-3.3-3.4-1.3-6.9-2.2-10.2-3.8-5.9-2.8-10-7.4-10.9-14-.6-4.1-.3-8.4,1.4-12.4,3.4-8.1,9.7-12.3,18-14.2,4.2-1,8.5-1.1,12.7-.9,7.2.4,14.2,2.1,20.7,6.2-3.1,4.9-6.1,9.9-9.2,14.8-2.5-1-4.9-2.1-7.5-3-3.2-1.1-6.4-1.4-9.6-.2-1,.4-1.9.9-2.6,1.7-1.9,2-1.5,4.6,1.1,5.7,2.9,1.3,5.9,2.3,9,3.2,5,1.6,10.1,2.9,14.3,6.2,4.3,3.4,7.1,7.6,7.2,13.3,0,5-.2,10-2.7,14.5-4,7.6-10.3,12.3-18.8,13.8-3.4.6-7,1-10.4.9-9.1-.2-17.8-2.2-25.3-7.7-.5-.4-1.2-.7-1.7-1.1-1.9-1.4-1.9-1.7-.6-3.7,1.7-2.6,3.3-5.2,5-8h0Z"/>
    <path class="st0" d="M406.5,278.9c14.8-8.6,29.2-7.6,43.4,1.4-3,6.3-5.9,12.5-9,19-4.5-4.8-9.8-6.7-15.9-6.1-5.2.5-9.5,3.1-12.7,7.3-5.4,7-5.9,18.2,3,25.9,5.6,4.9,16.9,7.3,25.8-1.9,2.9,6.2,5.8,12.3,8.7,18.5-3.4,2.5-7.2,4.5-11.4,5.7-4.1,1.2-8.2,1.8-12.5,1.7-6.9-.3-13.3-2.1-19.1-5.7-6.5-4-11.4-9.4-14.6-16.2-1.9-4-3-8.2-3.5-12.7-.6-5.6,0-10.9,1.7-16.1,1.6-5,4.2-9.3,7.6-13.4,2.5-2.9,5.5-5.1,8.6-7.4h0Z"/>
    <path class="st0" d="M255.5,404.4v-9.1h2.5c1.6,0,2.4.9,2.5,2.7,1.5-2.5,3.8-3.2,6.2-3.2,2.5,0,4.5,1.2,5.5,3.7,2.4-3.6,6.7-4.6,9.8-2.9,2.5,1.4,3.5,3.8,3.6,6.3.2,4.8,0,9.7,0,14.6h-5.2c0-3.9,0-7.9,0-11.8,0-1.4-.5-2.8-1.2-4-.9-1.7-2.9-1.8-4.3-.5-1.1,1-1.7,2.1-1.6,3.6,0,4.2,0,8.4,0,12.6h-5.2v-1.6c0-4-.1-8-.4-12-.1-2.3-1.5-3.5-3.3-3.4-1.7,0-3.4,2.1-3.4,4v13h-5.5v-12.2h0Z"/>
    <path class="st0" d="M97.1,497.5v-5.2h2.5c1.6,0,2.4.9,2.5,2.7,1.5-2.5,3.8-3.2,6.2-3.3,2.5,0,4.5,1.2,5.5,3.7,2.4-3.7,6.7-4.6,9.8-2.9,2.4,1.3,3.5,3.7,3.6,6.2.2,4.9,0,9.8,0,14.8h-5.2c0-3.9,0-7.9,0-11.8,0-1.6-.2-3.3-1.5-4.5-.9-.8-2-1.1-3.2-.5-1.5.8-2.4,2-2.4,3.7,0,3.8,0,7.7,0,11.5v1.6h-5.2v-1.6c0-4-.1-8-.4-12-.1-2.3-1.5-3.5-3.3-3.4-1.7,0-3.4,2.1-3.4,4v13h-5.5v-16h0Z"/>
    <path class="st0" d="M161.4,498.8c0,3.4.2,6.7.3,9.9,0,1.6,0,3.1,0,4.8h-5.5c0-1.9,0-3.9,0-5.8,0-2.8,0-5.6-.4-8.3-.2-2-1.3-2.7-3-2.9-1.6-.1-3.1,1.4-3.4,2.9-.3,1.6-.3,3.2-.4,4.8,0,3.1,0,6.2,0,9.4h-5.2v-4.1c0-2.7,0-5.4,0-8.1,0-1.1-.3-2.3-.7-3.4-.8-1.9-4-2.1-5.2-.2-.6,1-1.1,2.3-1.2,3.5-.1,4,0,8.1,0,12.2h-5.2v-21.1h4.5c0,.7,0,1.5.1,2.7,1.6-2.2,3.8-3.4,6.2-3.3,2.4,0,4.6.9,5.7,3.8,2.5-3.5,5.7-4.4,9.3-3.1,2.8,1,3.7,3.6,4,6.4h0Z"/>
    <path class="st0" d="M137.9,420.9c4.5,1.2,8.7-.5,8.3-7-2.2,2.6-5.1,3.1-8.1,2.4-3.2-.7-5.2-3.1-5.9-6.2-1-4.2-.8-8.2,2-11.9,2.6-3.5,9.1-4.7,12.1-1.1.1.2.3.3.6.6v-2.3h4.9c-.1,1.2-.3,2.4-.3,3.5,0,5.6,0,11.1,0,16.7,0,2.7-.6,5.2-2.7,7.2-2.8,2.8-6.4,3.1-10,2.8-1.8-.2-3.6-.9-5.5-1.4.5-1.7.9-3.1,1.3-4.5,1.2.4,2.2.8,3.4,1.2M145.1,410.5c.3-1.2.6-2.3.7-3.5.1-1.2,0-2.4,0-3.5,0-1.9-1.2-3.6-3-4.2-1.4-.5-3.3.5-4.4,2-1.4,2-1.5,4.2-1.2,6.4.3,1.9,1.4,3.8,3.4,4.4,1.6.5,3.2,0,4.4-1.6h0Z"/>
    <path class="st0" d="M191.9,474.3c-2.4-.5-4.6-.9-7-1.4.5-1.9.9-3.3,1.3-4.8,3.3,1.5,6.7,2.8,9.9.3,1.8-1.4,1.8-3.8,1.9-6.2-1.5,1.6-2.8,2.6-4.9,2.8-4.1.4-6.7-1.3-8.4-4.3-2.2-3.8-1.9-10.6,1.3-14.4,2.4-2.8,8-4.7,12.4-.5.1-.7.3-1.3.4-1.9h4.4c0,6.8.1,13.5,0,20.2,0,3.8-1.3,7.4-5.2,9-1.8.7-3.9.8-6,1.1M197.6,457.4v-5.3c0-2-1.3-3.8-3.1-4.3-1.6-.4-3.7.6-4.6,2.4-1.4,2.5-1.3,5.1-.4,7.7.7,2.1,2.5,3.1,4.6,2.9,1.8-.2,2.9-1.4,3.6-3.3h0Z"/>
    <path class="st0" d="M241.9,453.6v-9.6h4.4c.2.7.4,1.5.5,2.2,1.2-.8,2.3-1.8,3.7-2.3,5.9-1.8,10.2,1.4,11.5,7.3.6,2.9.4,5.8-.7,8.5-2.3,5.8-9,7.5-13.8,3.9v9.8h-5.5v-20M256.8,453.8c-.4-1.2-.7-2.5-1.3-3.7-.8-1.7-2.4-2.5-4.1-2.1-2.6.5-4,2.3-4,4.9v4c0,1.9,1.5,3.7,3.7,4.2,1.2.3,3.6-.3,4.4-2.1.6-1.6.9-3.3,1.3-5.2h0Z"/>
    <path class="st0" d="M278.8,455.2c0-1.4-.2-2.6-.3-3.8-.3-2.1-1.8-3.4-3.7-3.3-1.9,0-3.7,1.9-3.7,3.9,0,3.8,0,7.7,0,11.5v1.7h-5.4v-30.8h5.3v12c1.7-1.5,3.1-2.6,5.2-2.7,3.7-.2,6.1,1.2,7.4,5.1.3.9.3,2,.4,3,0,4.5,0,8.9,0,13.5h-5.2v-9.9h0Z"/>
    <path class="st0" d="M179.5,461c-2.7,4.1-6.6,5.1-11,4.5-3.6-.5-6.3-2.7-7.4-6.1-1.4-4.1-1.2-8.3,1.5-12.1,1.6-2.3,3.9-3.6,6.6-3.7,1.9,0,3.9,0,5.7.5,3.7,1.3,5.7,4.4,6.1,8.1.4,2.9.2,5.9-1.6,8.7M173.4,448.5c-2-1.3-4.2-1.1-5.7.6-2.2,2.5-2.2,8.3,0,10.8,1.4,1.6,3.3,2,5.2.9,3.3-1.9,3.9-8.7.5-12.3h0Z"/>
    <path class="st0" d="M157.2,398.3c3.9-4.3,11-4.6,15.1-.8,1.4,1.3,2.5,3.4,2.8,5.3.9,5.3.3,10.9-5.7,13.4-5.8,2.4-13.1.3-14.5-7.4-.7-3.8-.3-7.3,2.3-10.6M165.1,413.1c1.7-.4,2.9-1.2,3.8-2.8,1.4-2.8,1.3-5.6.1-8.4-.5-1.3-1.6-2.5-3.2-2.6-1.7-.2-3.2.2-4.2,1.8-1.6,2.5-1.7,5.1-1,7.7.5,2.1,1.7,3.9,4.6,4.3h0Z"/>
    <path class="st0" d="M232.6,406.3v-10.9h4.8v2.8c1.6-1.9,3.4-3.1,5.8-3.3,4.1-.4,7.4,1.7,7.8,5.9.5,5.2.1,10.5.1,15.8h-5.1c0-.4,0-.9,0-1.3v-11.5c0-2.1-1.1-3.7-2.7-4.2-1.4-.5-3,0-4.1,1.8-.6,1-.9,2.3-.9,3.4,0,3.9,0,7.8,0,11.7h-5.5v-10.2h0Z"/>
    <path class="st0" d="M326.3,416.7h-2.3c0-3.3,0-6.5,0-9.7,0-1.5,0-3.1-.3-4.6-.3-1.6-1.3-2.7-3.1-2.8-1.5-.1-3,.8-3.7,2.5-.4.8-.6,1.7-.6,2.6,0,4,0,8,0,12h-5.4v-21.2h4.8v2.9c1.5-1.9,3.1-3.1,5.3-3.3,2.1-.2,4,0,5.7,1.3,2.1,1.6,2.7,4,2.8,6.4.2,4.6,0,9.2,0,13.9h-3.3Z"/>
    <path class="st0" d="M149.6,443.3c2.7.2,5.1.9,6.4,3.4.5,1.1,1.1,2.3,1.2,3.5.1,4.9,0,9.9,0,14.9h-5.4c0-.4,0-.9,0-1.4v-11.5c0-2.6-1.4-4.3-3.5-4.3s-4,1.8-4,4.4v12.3c0,0,0,.2-.1.4h-5.4v-21.1h4.5c.2.8.3,1.6.5,2.5,1.5-2.1,3.5-2.8,5.9-3.1h0Z"/>
    <path class="st0" d="M223.5,448.7c-.4,0-.9,0-.9-.2-.4-1-.6-2.1-1-3.2,2-1.3,4.2-1.7,6.6-1.8,2.2,0,4.3,0,6.2,1.3,1.8,1.2,2.8,3,2.9,4.8.3,5.1,0,10.3,0,15.5h-4.5c0-.6,0-1.2,0-1.8-1.2.6-2.3,1.4-3.6,1.8-3.7,1.3-7.4-.2-8.6-3.3-1.2-3.2-.5-7.6,3.4-9.1,2.5-.9,5.2-1.4,8-2.1.1-2.5-2.3-3.6-4.8-3.3-1.3.2-2.5.8-3.8,1.3M231.3,460.2c1.3-1.6,1-3.4.8-5.6-1.6.4-3.1.7-4.5,1.2-1.4.5-1.9,1.6-1.9,3s.9,2.6,2.4,2.6,2-.7,3.2-1.2h0Z"/>
    <path class="st0" d="M361.5,397.1c1.8,1.7,2.2,3.9,2.3,6.1.1,3,0,6,0,9.1v4.4h-4.8c0-.5,0-1.1,0-1.8-1.9,1.3-3.8,2.2-6.1,2.3-5.3.3-7.5-5.4-5.9-9.2,1.2-2.9,3.6-4.1,6.4-4.7,1.6-.4,3.3-.4,4.9-.5.5-1.5-.4-2.6-1.5-3.1-2.7-1.4-5.2-.2-7.8,1-.3-1-.7-2-.9-3.1,0-.3.3-.9.6-1.1,1-.5,2.1-1,3.2-1.2,2.3-.4,4.6-.6,6.8.2,1,.4,1.8,1,2.7,1.7M351.9,409c0,.8-.2,1.8.2,2.5.8,1.7,3.1,1.9,4.8.6,2.1-1.6,1.3-3.7,1.4-5.9-2.3.6-4.9,0-6.4,2.8h0Z"/>
    <path class="st0" d="M127,447.8c-2.8-1-5,.2-7.4,1.3-.4-1.3-.7-2.5-1.2-4,1.5-.5,2.9-1.2,4.3-1.4,2.8-.4,5.7-.7,8.4.9,2.3,1.4,3.1,3.6,3.2,6,.1,2.9,0,5.8,0,8.7,0,1.9.3,3.8.4,5.8h-4.9c0-.6-.2-1.2-.3-2.1-2.1,2.4-4.5,2.7-7.1,2.5-2.6-.1-5.1-2.7-5.3-5.4-.4-5.4,3-7.9,7.2-8.5,1.6-.2,3.2-.3,4.8-.5-.3-1.3-.5-2.7-2.1-3.3M127.3,460.7c2.5-1.4,1.6-3.7,1.8-6.1-1.7.4-3.2.6-4.6,1.2-2,.8-2.6,2.5-1.6,4.4.8,1.6,2.2,1.8,4.4.5h0Z"/>
    <path class="st0" d="M257.2,493.6c1.8,1.6,2.5,3.7,2.5,5.9,0,4.7,0,9.3,0,14.1h-5.2c0-3.7,0-7.3,0-10.9,0-1.2-.1-2.4-.5-3.5-.5-1.9-2.1-2.9-3.8-2.7-1.8.3-3.5,2.1-3.5,4v13.1h-5.5v-21.1h4.4c.2.7.4,1.6.5,2.3,2.4-2.7,6.9-4.3,11-1.2h0Z"/>
    <path class="st0" d="M71.8,395c2.4-.7,5.7.7,6.8,2.5,1.1,1.8,1.7,3.8,1.7,6,0,4.3,0,8.6,0,13h-5.5v-4c0-3,0-6,0-9.1,0-2.5-1.5-4.2-3.9-3.9-1.6.2-3.4,1.8-3.5,3.4-.2,3-.3,6-.3,9,0,1.6,0,3.1,0,4.7h-5.2v-21.2h4.5v1.9c1.8-.8,3.6-1.6,5.5-2.3h0Z"/>
    <path class="st0" d="M109.3,443.8c3.9,1,5.8,5.5,5.9,8.2v4h-13.5c.6,4.8,4.3,6,11.7,4.2.3,1,.6,2.1.7,3.1,0,.3-.4,1-.6,1.1-4.2,1.3-8.4,1.9-12.4-.4-3-1.7-4.3-4.6-4.6-7.9-.3-3.5.3-6.9,2.6-9.7,1.5-1.8,3.4-3,5.8-3.1,1.4,0,2.8.2,4.4.3M110,450.6c-1-2.6-2.1-3.4-4.3-3.2-2.1.1-3.2,1.4-4,4.8h8.3v-1.5h0Z"/>
    <path class="st0" d="M205.1,407.6h-3c-.5,1.9,1.3,3.9,3,4.6,2.6,1,5.1.5,7.6-.1.9-.3,1.1,0,1.2.8.1,1,.3,1.9.5,3-4.8,1.4-9.5,2.2-14-.8-2.3-1.5-3.3-3.8-3.6-6.4-.3-3.1-.3-6.3,1.6-9.2,1.7-2.7,3.9-4.3,7.2-4.5,4.5-.3,6.7.8,8.6,4.3,1.4,2.5,1.6,5.3,1.2,8.4h-10.2M205.7,398.9c-2.5.8-3.6,2.1-3.7,4.8h8.2c.2-2.9-1.5-4.8-4.5-4.8Z"/>
    <path class="st0" d="M296.3,407.6h-2.3c1.2,5,4.2,6.1,11.7,4.2.3,1,.6,2.1.7,3.1,0,.4-.5,1.1-.9,1.2-3.7,1-7.3,1.5-11,0-2.9-1.1-4.7-3.3-5.4-6.2-.9-4.1-.6-8,2.1-11.6,1.6-2.1,3.5-3.2,6.1-3.4,2.4-.2,4.5,0,6.5,1.4,2.4,1.6,3.3,4,3.6,6.7.2,1.4,0,2.9,0,4.6h-11.3M294.4,403.8h8.3c-.1-.6-.2-1-.3-1.4-.4-2.8-3.2-4.3-5.7-3-1.8.9-2.2,2.7-2.4,4.5Z"/>
    <path class="st0" d="M110.1,412.6c.9-.2,1.8-.3,2.6-.5.2,0,.4-.2.6-.2.4,1.1.8,2.2,1.1,3.3,0,.2-.3.7-.6.8-3.8,1.3-7.6,1.6-11.4.3-3.3-1.2-5.1-3.9-5.6-7.2-.5-3.4-.3-6.9,1.7-9.9,1.7-2.4,3.8-3.8,6.9-4.1,3.3-.3,6.1.4,7.9,3.1,1.1,1.6,1.6,3.7,2,5.7s0,2.5,0,3.8h-13.4c-.2,1.8,1,4,2.7,4.5,1.6.4,3.4.4,5.2.5M106,403.8h4.3c.1-2.6-1.4-4.7-3.3-4.9-2.7-.2-4.5,1.4-5,4.9h4,0Z"/>
    <path class="st0" d="M191.4,409.2c-.9,2.3-1.7,4.5-2.5,6.7,0,.1,0,.4-.2.4-1.6.1-3.1.4-4.7.3-.4,0-1-.7-1.2-1.2-1.5-4-2.8-8.1-4.3-12.1-.9-2.6-1.9-5.2-2.8-7.9h5.9c.8,2.5,1.6,5,2.4,7.6.8,2.6,1.5,5.1,2.2,7.5,1.4-4.9,2.9-9.9,4.4-15h5.8c-1.6,4.6-3.3,9.1-5,13.7h0Z"/>
    <path class="st0" d="M344.8,396.1v3.4h-4.9v7.1c0,1,0,2,0,3.1,0,2.3,1.5,3.2,3.6,2.6.3,0,.5,0,.8-.1v4.6c-2,0-4,.3-5.9,0-2.3-.4-3.6-2.4-3.7-4.7-.1-3.7-.2-7.4-.3-11.1v-1.2c-.8,0-1.6,0-2.5-.1v-4.1h2.5v-4.7c1.9-.5,3.7-.9,5.6-1.3v6c1.3,0,2.5,0,3.8,0,.4,0,.7.4,1.1.7h0Z"/>
    <path class="st0" d="M297.6,450.7c1.7-4.5,4.8-7,9.6-7.2,1.7,0,3.5.2,5.2.3.8,0,1.2.6,1,1.5-.3,1.1-.5,2.1-.9,3.3-3.3-1.2-6.5-1.6-8.8,1.7-1.6,2.3-1.5,6.3,0,8.1,2.4,3.1,5.5,2.9,9,1.8.3,1.2.6,2.4.7,3.6,0,.3-.4.9-.8,1-4.2,1.1-8.3,1.3-12-1.4-1.7-1.3-2.6-3.2-3.2-5.3-.7-2.5-.5-4.9.2-7.4h0Z"/>
    <path class="st0" d="M85.4,392.8v-2.2c1.7-.4,3.4-.8,5.1-1.3v5.9h4.8v4.2h-4.7c0,3.6-.1,7.1,0,10.6,0,2.1,1.7,2.8,4.5,2.1v4.4c-2.5.5-4.8.9-7.1-.4-1.9-1.1-2.5-2.8-2.6-4.8,0-3.9,0-7.8,0-11.6,0,0,0,0-.2-.3h-2.6v-4.1h2.8v-2.7h0Z"/>
    <path class="st0" d="M80.3,448.5c3.1-4.9,9-6.3,15.1-4.2-.3,1.4-.7,2.8-.9,4-1.8,0-3.4-.4-5.1-.3-3.6.2-5.6,4.5-4.8,8.1.9,4.1,4.3,5.6,8.1,4.6,1.9-.5,2-.5,2.4,1.9,0,.5,0,1.2.1,2-4,1.4-8.1,1.8-12-.7-3.1-2-4.2-5.1-4.3-8.7,0-2.3.2-4.5,1.4-6.7h0Z"/>
    <path class="st0" d="M373.5,407v9.6h-5.4v-30.8h5.4v21.2h0Z"/>
    <path class="st0" d="M57,389.2v27.4h-5.4v-29.2h5.4v1.9h0Z"/>
    <path class="st0" d="M120.4,395.4h2.7c.2,1,.4,1.9.6,3,1.6-2.4,3.6-4,6.6-3.2v5c-.9,0-1.9,0-2.8.3-2.1.6-3.3,2.5-3.3,5v11.2h-5.4v-21.1c.5,0,.9,0,1.6,0h0Z"/>
    <path class="st0" d="M219.7,395.4h3.4c0,1,0,1.9.1,3.2,2-2.4,3.9-4.3,7-3.4v5c-.5,0-.9.1-1.4,0-2.7-.3-4.7,2.4-4.7,4.7v11.7h-5.5v-21.1c.2,0,.5,0,1.1,0h0Z"/>
    <path class="st0" d="M213.5,452c-.1.7-.3,1.3-.3,1.8v11.3h-5.5v-21.1h4.5c0,.9,0,1.8.1,3.1,1.9-2.4,3.8-4.3,7-3.4v5c-2.6-.2-4.9.3-5.8,3.3h0Z"/>
    <path class="st0" d="M288.5,459.7v-15.7h5.4v21.1h-5.4v-5.4h0Z"/>
    <path class="st0" d="M214.1,507.6v6h-5.4v-21.1h5.4v15.1h0Z"/>
    <path class="st0" d="M165.9,504.3v-11.9h5.4v21.1h-5.4v-9.3h0Z"/>
    <path class="st0" d="M212.6,483.7c.7.8,1.6,1.6,1.8,2.5.5,1.8-.9,3.6-2.7,3.6-1.9,0-3.1-.7-3.3-3-.2-1.7,1.2-3.1,3.2-3.1.3,0,.6,0,1.1,0Z"/>
    <path class="st0" d="M288.2,437c1.1-1.8,2.7-2.4,4.3-1.6,1.6.7,2.1,2.2,1.4,4-.4,1.1-2,2-3.2,1.9-1.4-.2-2.6-1.4-2.7-2.7,0-.5,0-1,0-1.6h0Z"/>
    <path class="st0" d="M171.6,485.6c.3,1.5.2,2.8-1.3,3.6-1.3.7-2.5.8-3.7-.1-1.1-.9-1.4-2.2-.9-3.3.4-.9,1.5-1.7,2.4-2,1.5-.4,2.7.3,3.4,1.8h0Z"/>
    <path class="st0" d="M388.1,197.1c-7.3-2.5-13.7-6.3-19.4-11.4-7.9-7.2-13-16.1-15.7-26.3-.9-3.6-1.1-7.3-1.4-11-.5-6.9.5-13.6,2.9-20.2,2.1-5.9,5-11.2,9-16,5.1-6.2,11.2-11.1,18.5-14.5,5.4-2.5,11-4.4,17-4.7,3.5-.2,7-.5,10.4-.3,5.8.4,11.5,1.8,16.9,4.2,6.8,3,12.8,7.1,17.9,12.6,6.2,6.7,10.4,14.5,12.8,23.2,1.6,5.9,1.9,11.8,1.5,17.7-.4,5.9-1.9,11.6-4.2,17-3.1,7.3-7.8,13.6-13.7,18.9-4.9,4.4-10.5,7.7-16.7,10.1-7.7,3-15.8,3.8-23.9,3.1-4-.3-7.9-1.6-12-2.5M405.7,126.3h4.4v4.7c0,.9.2,1.3,1.2,1.5,2,.5,4,1,5.8,2,3.3,1.9,6.5,3.4,10.4,2.8,1.3-.2,2.6.4,3.9.6,5.9.8,11.3,3,16.2,6.2,3.2,2.1,6.1,4.6,9.5,7.2-.3-5-.3-10-1.1-14.8-1-5.9-3.2-11.4-6.2-16.5-2.9-5-6.7-9.3-11.1-13.1-4.4-3.8-9.4-6.8-14.9-8.9-6.1-2.4-12.4-3.3-18.8-3.6-2.1,0-4.3.4-6.5.6-5,.5-9.8,1.9-14.3,4-6.9,3.1-13,7.3-17.8,13.2-2.5,3.1-4.8,6.3-6.8,9.7-4.1,6.9-5.9,14.5-6.2,22.4-.2,4.1.5,8.3,1.2,12.5,1.7,9.9,6.5,18.2,13.4,25.4,4.5,4.8,9.9,8.3,15.8,11.1,6.6,3,13.5,4.4,20.6,4.7,2.6,0,5.2-.3,7.8-.6,4.8-.5,9.5-1.9,13.9-3.9,7.6-3.5,14.1-8.4,19.4-15,3.8-4.8,6.7-10,8.7-15.8.2-.5,0-1.3-.3-1.6-1.6-1.8-3.2-3.5-4.9-5.2-4-4-8.8-6.7-14-8.8-1.8-.7-3.7-1.1-5.6-1.6,0,.2-.2.4-.3.6.9.7,1.6,1.7,2.7,2.1,7,2.3,13.1,5.8,17.7,11.7,1,1.3,2.1,2.6,3.3,3.9-7.7,21.2-29.9,36.8-56.9,32.2-21-3.6-36.2-20.6-39.6-36.7,2.6.3,5.1.5,7.7.9,4.2.7,8.2,0,12.2-1.3.7-.3,1-.6,1.1-1.4.2-1.6.5-3.3.9-4.9,1.4-5.5,4.2-10.1,8.4-13.9,3.5-3.1,7.6-5.2,12.2-6.2,1.2-.3,1.4-.6,1.4-1.6,0-1.5,0-3,0-4.6h5.7M414.4,135.4c-1.8-.5-3.7-.8-5.5-1.4-.3,0-.7-.8-.7-1.2,0-1.6,0-3.2,0-4.8h-6.1c0,1.6,0,3.2,0,4.8,0,.5-.6,1.2-1,1.2-4.7.7-8.9,2.6-12.4,5.7-7.1,6.3-10.5,14.1-9.2,23.8.7,5.1,2.8,9.5,6.1,13.3,4.3,5,9.9,7.9,16.6,8.8v2.1h6.1v-2.1c3.6-.7,7-1.7,10.2-3.6,4.7-2.8,8.2-6.7,10.4-11.6,2-4.4,2.8-9,2.1-13.9-.8-5.4-2.9-10.1-6.4-14.1-2.7-3.1-6.1-5.2-10-7M366.5,176.2c.5.5,1,1,1.5,1.5,3.8,4.8,8.5,8.4,13.8,11.3,8.1,4.4,16.7,6.6,26,5.8,2.7-.2,5.4-.4,8-1,9.2-2.1,17.2-6.4,23.9-13.1,2-2.1,4-4.3,5.7-6.7,1.8-2.7,3.3-5.6,5-8.6h-8.4c-1,1.9-1.8,3.7-2.8,5.5-4.6,8.4-11,14.7-19.9,18.6-7.3,3.2-14.8,3.8-22.4,2-7.7-1.8-14.1-5.9-19.4-11.8-3.7-4.1-6.6-8.7-8.7-13.8-.1-.4-.6-.7-1-.7-2.5,0-5,0-7.5,0-.1.2-.3.3-.4.5,2.2,3.5,4.5,7,6.7,10.7M442.1,162.1c-2.6-2.8-5.6-5-9.3-6.2-.2,2.1,0,3.7,2.2,4.7,1.8.9,3.3,2.6,4.9,3.9.5-1.8,2.1-.5,3-1.1-.2-.4-.4-.7-.8-1.3M431.7,168.2c-.9,1.2-.6,2.1.5,3.1.9.9,1.6,2,2.4,3,1.9-2.4,1.9-3.1-.1-5.3-.7-.7-1.4-1.5-2.2-2.4-.3.7-.4,1-.5,1.6M427.7,181.9c1.5-1.9-.4-3-.9-4.4-.9.9-1.8,1.8-2.6,2.6.5,1.1,1.1,2.3,1.6,3.4.6-.5,1.2-.9,1.9-1.5M380.4,173c-.3-.6-.6-1.2-.8-1.7-1.7.5-3.4,1-5.1,1.5.6.9,1.2,1.6,1.7,2.4,1.5-.5,2.8-.9,4.1-1.4.2,0,.2-.4.2-.8M376,165.1c-1.7.4-3.3.7-5.5,1.2.8.7,1.4,1.6,1.9,1.6,1.9-.2,3.8-.8,5.6-1.2-.1-.8-.3-1.4-.4-2-.5.2-.9.3-1.6.4M390.2,183.5c-1.3.3-2.5.6-4.1,1,2.7,2.2,3.9,2.2,6.1,0-.6-.3-1.2-.7-2-1M380.3,178.9c-.2.3-.5.8-.4.8.6.4,1.4,1.1,2,1.1,1-.1,2-.8,3.1-1.3-.5-.7-1-1.4-1.5-2-1,.5-2,.9-3.1,1.4Z"/>
    <path class="st0" d="M214.7,155.1v-24.3c0-.5,0-1.1.1-1.6,0-.3.6-.6.9-.6s.7.4.9.6c.2.3,0,.7,0,1.1v40.4c0,.5-.1,1.3-.5,1.6-.7.6-1.6-.1-1.6-1.4v-15.8h0Z"/>
    <path class="st0" d="M399.8,121.2c0-.6,0-1.1,0-1.6-.3-2.7,1.4-4.7,4.2-5.5,1.6-.5,4.5.5,5.4,1.9,1.5,2.3,1.5,5.3-.3,7.1-2.4,2.6-6.6,2.5-8.7-.8-.2-.4-.4-.7-.6-1.2M403,122.3c1.6,1.1,3,.9,4.4-.2,1.3-1.1,1.3-3.4.6-4.4-.9-1.4-2.8-2-4.3-1.4-2.4.9-2.9,3.9-.8,6h0Z"/>
    <path class="st0" d="M408.1,153.5v-17.9c8.8.7,16.9,8.4,18.5,17.3,1.3,7-.2,13.1-4.6,18.6-3.2,3.9-7.3,6.2-12.1,7.5-1.4.4-1.8,0-1.8-1.6v-23.9M411.7,157.5c-2,.5-1.7,1.9-1.5,3.4,4.9-2,9.7-3.7,15.2-3.6-.2-1.1-.3-2.1-.5-3.1-4.7,0-8.9,1.3-13.2,3.3M414.4,164.4c-.9.2-1.8.5-2.7.7-1.2.3-1.9.9-1.6,2.2,0,.4,0,.7,0,1.2,2.1-.5,4.1-1.1,6.1-1.4,2.1-.3,4.3-.3,6.7-.4.4-.8.9-1.9,1.6-3.6-3.6.4-6.7.8-10.1,1.3M415.7,146.7c-1.3.5-2.7.9-3.9,1.5-1.8.8-1.8.9-1.5,3,3.8-2.1,7.9-3.4,12.4-3.5-.6-1.2-.9-2.7-2.9-1.9-1.2.5-2.6.5-4,1M414.9,173.2c-1,.2-1.9.4-2.9.6q-2.1.5-1.7,3.2c2.4-1.2,4.7-2.3,6.9-3.4,0-.2-.1-.3-.2-.5h-2.1M410.2,140.1c1-.3,2-.6,3.1-.9,0,0,0-.2,0-.3-1-.3-2-.6-3.2-1,0,.9,0,1.5,0,2.3h0Z"/>
    <path class="st0" d="M402,168v11.2c-11.3-1.4-18.5-10.8-19-20.2-.8-12.5,8.1-22,19-23.5v32.6M400.1,138.3c-.2-1.2-.9-.3-1.2-.2-4.9,1.6-8.7,4.8-11.3,9.2-1.2,2-1.8,4.4-2.8,6.9.7-.3,1-.3,1.1-.4,4.5-2.7,9.1-5.5,13.5-8.3.3-.2.6-.8.6-1.2,0-1.9,0-3.8,0-5.9M390.4,159.5c-1.6.8-3.2,1.6-4.9,2.4.2.6.3,1.3.5,2.3,4.4-2.3,8.5-4.7,12.7-6.7,1.5-.7,1.4-1.7,1.3-2.9-3.2,1.6-6.3,3.2-9.6,4.9M400,163c-4,1.7-8,3.5-12,5.2.6.8,1.1,1.4,1.6,2.1,2.9-1.3,5.7-2.7,8.6-3.9,1.6-.6,2.1-1.6,1.8-3.4M400.1,171.4c0-.5,0-.9,0-1.5-2.6,1.2-4.9,2.2-7.4,3.4.6.4,1.1.7,1.6,1,1.2.8,5.6-1.1,5.9-2.9Z"/>
  </g>
  <path id="path915" class="st0" d="M1030.6,57.5h-4.5v289.3h76.2c26.1,0,47.7-3.6,68.3-21.1,18.1-15.4,27.6-36.6,27.6-61.4s-20.5-61.7-51.9-72.2c17.6-13,26.2-31.4,26.2-55.7s-8.4-47-25-61.4c-18.1-16.1-40-17.5-60.9-17.5h-56.1ZM1079.3,83.1c16,0,32.5,0,45.6,8.2,13.3,8.4,21,23.8,21,42.3s-5.5,31.7-19,41.4c-13.5,9.7-26.5,9.7-42.9,9.6h-4.6s-19.9,0-26.4,0v-101.5c6.5,0,26.4,0,26.4,0ZM1087.9,210.3c20.3,0,41.5.7,57.1,8.5,16.1,7.9,26.5,26,26.5,46.2s-9.1,35-25.5,46.1c-15,10.1-33.5,10.1-51.4,10,0,0-34.5,0-41.7,0v-110.8h34.9"/>
  <path id="path917" class="st0" d="M1258.5,57.5h-22.3v289.3h26.8V57.5h-4.5"/>
  <path id="path919" class="st0" d="M1316.5,129.2c0,23,10.5,41.2,31.1,54,.3.2,50.8,26.9,50.8,26.9.1,0,5.2,2.5,5.2,2.5,22.9,11.1,48.9,23.8,48.9,50.4s-29.6,61.7-64.7,61.7-54.8-26-63.5-47.8l-1.7-4.3-23.6,10.7,1.4,3.9c14.1,39,47.3,63.2,86.7,63.2s92.2-39.3,92.2-85.9-10.8-44.9-34.1-59.5h-.1c0,0-53.7-28.1-53.7-28.1-.1,0-2.3-1.1-2.3-1.1-21.5-10.2-45.9-21.7-45.9-47.4s21.2-49.1,48.3-49.1,40,10.1,53.1,31l2.7,4.3,19.4-16-1.8-3.3c-14-25.3-42.4-41.7-72.3-41.7-44.2,0-76.2,31.7-76.2,75.5"/>
  <path id="path921" class="st2" d="M906.4,151.8l.7.5.8.4,1,.2h1.8c0,.1,1.3.3,1.3.3l1.7.5.7.3.8.4.3.2.8.5.8.5h0c0,.1-.6,0-.6,0h-.3c0-.1-.5-.4-.5-.4l-.3-.2-1.1-.4-1.7-.5-2.2-.2h0s.5.4.5.4l1.3.5,2.1.8.6.2.8.4.6.3,1,.6.5.3.4.3.7.6.3.3v.3c0,0,0,0,0,0l-1.1-.3-.5-.2-.7-.3-1-.4h-.2c0-.1-1-.6-1-.6h-.2c0,0-.9-.5-.9-.5l-.7-.3-1.2-.3h-1.1c0-.1-.2,0-.2,0v.3c0,0,.3.3.3.3l1.1,1.2,2.1,1.9.7.6,1,.8.4.3.7.5h.2c0,.1.8.7.8.7h0s-.7,0-.7,0l-1.1-.3-.4-.2-1.1-.6-.7-.4-1.5-1.3-2.3-2.2-.6-.5-.7-.3h-.4s0,.3,0,.3l.2.3.7,1.4.8,1.4,1,1.3.8.8.8.8,1,.7-.2.2h-.2s-.5,0-.5,0l-.4-.2-.5-.4-1.2-1.1-1.8-2.1-.5-.7-.2-.3-.9-1.6-.6-.8-.9-1.1-1.1-1.1h0c0,0,.3-.3.3-.3l.6-.6.4-.9v-.3c.1,0,.4-.6.4-.6"/>
  <path id="path923" class="st2" d="M903.9,153.9h0s0,0,0,0l-.4-.3-.8-.5h-.2c0-.1-1.2-.8-1.2-.8l-.3-.2-1.2-.5h-.2c0,0-1-.5-1-.5h-.2c0-.1-.9-.6-.9-.6l-.5-.3-.5-.4v-.4s0-.4,0-.4l.5-1.2.8-.9.5-.3h.2c0-.1.1,0,.1,0l.5.3,1,.8.4.2,1.4,1,.3.2.9.6.6.4.9.6,1.1.6v.7c0,0-.5.9-.5.9l-.6.7-.4.2h0"/>
  <path id="path925" class="st2" d="M895.6,149.5l-.8-.2-1-.3-.8-.3v-1c.1,0,.5-1.1.5-1.1l.6-1,.7-.8.5-.5.3-.2.6.3,1.1,1.1.2.2v.2c0,0-.2.2-.2.2l-.6.7-.5.8-.4.8-.2.4-.2.6"/>
  <path id="path927" class="st2" d="M892,148.5l-.7-.2-1.1-.2h-.8c0-.1,0-.1,0-.1v-.5c0,0,.3-.8.3-.8l.5-1.3.7-1.3.9-1.2.9-.9.8-.5.4-.2h.4c0,0,.3.5.3.5l.5,1.1.2.6-.8.6-.7.7-.6.9-.4.8-.3.8-.4,1.2"/>
  <path id="path929" class="st2" d="M893.7,140.4h0c0-.1-.2,0-.2,0l-.5.2-.8.5-.8.6-.9,1.1-.3.4-.5.9-.2.4-.4.8v.3c-.1,0-.5.9-.5.9l-.3,1.1v.5c0,0-.8,0-.8,0l-1.3-.2-.7-.2v-.4s.2-1.1.2-1.1l.5-1.7.4-1,.2-.4.3-.5.2-.3.6-1v-.2c.1,0,.7-.7.7-.7l.9-.9,1-.7.8-.4.8-.3h.3c0-.1.3-.1.3-.1l.3.6.6,1.2.3.6"/>
  <path id="path931" class="st2" d="M864.9,138.5l.7-1.1.7-1,.2-.3.7-.8v-.2c.1,0,1.1-.8,1.1-.8l1-.7,1.1-.5.7-.2.7-.2h.4c0,0,0-.3,0-.3l.2-.6v-.3c.1,0,.6-.8.6-.8l.2-.3.8-.9.6-.5.2-.2-.2-.3v-.3c0,0-.2-.4-.2-.4v-1.2c-.1,0,0-2.5,0-2.5l.4-2.6.4-1.4.2-.6v-.2c.1,0,.5-.9.5-.9v-.3c.1,0,.4-.5.4-.5l1.1-1.3.3-.3h.1s.2,0,.2,0h.2s0,.4,0,.4l-.4.7-.7,1.5-.2.5-.6,1.9-.2,2.5v1.2c0,0,.3,1.1.3,1.1l.5,1.4v.2c0,0,.3.2.3.2v-.5c.1,0,.3-.9.3-.9l.4-1v-.2c.1,0,.7-1,.7-1l.2-.3.8-.8,1.2-.8.7-.3.8-.2.8-.2h1.8s2.1.3,2.1.3l2.1.6,2.2.9,2.3,1.1,1,.6.4.2.3.2h.3c0,.1.5.5.5.5h.2c0,.1,1,.8,1,.8h.2c0,0,.9.7.9.7l.9.6,1.6,1.3,1,.9,1.2,1.4,1,1.4.5,1v.2c0,0,0,.2,0,.2h-.3c0,0-.2-.3-.2-.3l-.5-.6-1.9-1.9-.6-.5-1.6-1.3-.7-.5-1.5-1-.6-.4-1-.6-.9-.5-1-.5-.4-.2-.5-.3-1.4-.6-1.3-.5-.9-.3-1.9-.4-1.4-.2h-1.3s-1.7.3-1.7.3l-.8.4-.8.6-.5.5-.4.7h0c0,.1-.2.9-.2.9l-.2,1.3v.7s.5,0,.5,0l.8.2,1.8.6.6.3.4.2h.2c0,.1,1.1.7,1.1.7l2.5,1.6,1.9,1.8,1.1,1.6.2.3v.3c0,0-.4.2-.4.2h-.3c0,0-.8.5-.8.5l-1.4.9-1,1-.7.9-.2.3-.3.6-.3.6-.2.4v.2c-.1,0-.6,1.2-.6,1.2l-.7,2.1-.3,1.1v.6c-.1,0-.9-.2-.9-.2l-1.4-.5-.7-.3-.7-.4-.8-.5-.4-.3-.9-.6-.4-.3-.9-.8-1-1-1.6-2-1.4-2.3-.3-.6-.2-.2h-.3c0,0-.3.3-.3.3l-1,.9-.2.4-.3.6-.2.4-.4,1.5v1.4s.1,1.4.1,1.4l.4,1.3.5,1.2.9,1.5,1.1,1.5s1.5,1.6,1.5,1.6c.6.7,1.3,1.2,1.8,2,.6.9,1.8,1.6,2.6,2.2.9.6,1.9,1.4,2.8,2.1,1.2.9,1.9,1.7,2.9,2.7-.6.4-.7.5-1.2.2-.9-.5-7.5-5.4-9.6-7.2l-.5-.5-2.1-2.1-1.7-2.2-1.3-2.3-.5-1.2-.3-1.2-.2-1.3v-1.4s.3-1.2.3-1.2l.5-1.2.7-1.1.8-.9,1-.9s.7-.5.6-.6l-.5.2-1.1.5-1.3.8-1.2,1.1-.3.4-1,1.5-.4.9-.3.7-.6,1.2-.4-.3v-.4c-.1,0,0-.9,0-.9l.2-.9.2-.6.3-.7.2-.3"/>
  <path id="path933" class="st2" d="M749.3,165h0c0,0-.1,0-.1,0h0c0,0-.6,0-.6,0h0c0,0-.3,0-.3,0l-.8-.2-1,.3h-2.8s-4.4.2-4.4.2h-1.8c0,.1-.5.1-.5.1h-1c0,0-.5,0-.5,0h-1.1s-.7,0-.7,0h-1.4c0,0-1.3,0-1.3,0h-1.9c0,.1-.9.4-.9.4l.6.4h2.5s.8,0,.8,0h.6s.4,0,.4,0l1.9.2h.7s1.2.2,1.2.2l3.1.5,1.5.3,2.9,1.5,1,.5.4.2h0c0,.1,0,.1,0,.1h0c0,0,.1,0,.1,0h0c0,0,0,0,0,0h0c0,0,.1,0,.1,0h0c0,0,.1,0,.1,0h0c0,0,0,0,0,0h0c0,0,.2,0,.2,0l.3,1.3v.7s.2,1.2.2,1.2v.6s.3,2.5.3,2.5l.2.9.3.6.2.9v1.2c0,0,.2,1.3.2,1.3v1.1c0,0,.2.8.2.8l.3,2,.2,1.1.2.3,1,1.3.6.8.2.5.6,1.1,1,2.3,1.1,2.2.8,1.1.7.7,1.4,1.9,1.5,2.2,1.2,1.5,2.1,1.3.5.2,1.6.8,2,1.2,2.1.8.9.3,1.1.4.8.3h0c0,0,.1,0,.1,0h0c0,0,.3,0,.3,0h0c0,0,.3,0,.3,0h0c0,0,.4,0,.4,0h0c0,0,.3,0,.3,0h0c0,0,.1,0,.1,0h0c0,0,.2,0,.2,0h0c0,0,.8.3.8.3l1.2.3h.3s2.4.5,2.4.5l1.3.2,1.6.2,2.3.2h.6s2.1.2,2.1.2h1.7s1.4,0,1.4,0h1.9s1,0,1,0h.7c0,0,2.1,0,2.1,0l.2.8v1.7l-.5,2.8v2.4c-.1,0-.1.6-.1.6v1.1c0,0,.4,1.6.4,1.6l.6,2.3v.6c0,0,.7,2.4.7,2.4l.7,3v1.1s0,2.1,0,2.1v2.7c0,0-.1,1.5-.1,1.5v1.7s0,1.6,0,1.6l.4,1.2.2.7v.2l.7.8h.6c0-.1,1.5-1.1,1.5-1.1l.9-.8.8-1v-.3c0,0,.3-.2.3-.2l.2-.5.2-.2.4-.8.3-.5v-.3s.5-1.2.5-1.2v-.5c.1,0,.4-.4.4-.4v-.3c0,0,.3-.3.3-.3v-.2s.2-.2.2-.2l.2-.5.2-.3.2-.4.3-.3.2-.6.2-.4v-.7s-.2-1.6-.2-1.6v-1.6l.2-1.4v-.4s0-.3,0-.3v-.4s0-.3,0-.3v-2.1c0,0,0-.2,0-.2v-.9s0-.8,0-.8v-1s0-.4,0-.4v-.2c0,0-.1-.4-.1-.4l-.5-.8-.6-.7-1-2.3-.3-1.5-.6-3.7v-.7s-.2-1.3-.2-1.3h.5l1.3-.4,2.9-.8,3.4-1.1,1.3-.3.2-.2h.6c0,0,.7-.4.7-.4l1.5-.4h.6c0,0,3.1-.6,3.1-.6l1.3-.2,1.7-.4h.4c0,0,1.4-.4,1.4-.4l3.6-1.3,1.5-.5,1.5-.6,1.3-.5,1.6-.5,2.8-.9,1.4-.4,1-.2,5-1.2,1.8-.4h1.6c0-.1.7-.1.7-.1l.4-.2,1.2-.6.6-.3h0c0,0,.5,0,.5,0v-.2h.8c0-.1.7-.5.7-.5h.3c0,0,.7-.7.7-.7l.8-1.3,1-.4,1.1-.7.8-.9.3-.7v-.7s-.7-1.1-.7-1.1l-.3-.3h-.4c0-.1-.5-.2-.5-.2h-.9v-.9h0c0,0-.5-1.1-.5-1.1l-1.4-1.2-1.8-.8-3.7-.8-1.8-.6-1-.5-1.3-.2-2.2-.4-2.1-.6-.9-.5-1.4-.7-2.9-1.4h-.3c0-.1-.9-.7-.9-.7l-.5-.3h-.5c0-.1-1.7-.5-1.7-.5h0c0,0-.2,0-.2,0h-.5c0,.1-.5.1-.5.1h-.8c0,.1-.8.3-.8.3l-2.9.9-1.5.2h-.5s-2.6.6-2.6.6l-1.9.5h-.7c0,0-1.3.2-1.3.2l-1.9-.2h-.8s-1.3,0-1.3,0h-1.7s-1.1.1-1.1.1h-2s-.5,0-.5,0l-1.7-.2h-.5s-2.5,0-2.5,0h-1.3s-.8,0-.8,0l-1.8.2h-.8c0,0-.7.1-.7.1l-2.6.3-3.1.3h-.8s-1.2,0-1.2,0h-1.7s-1,0-1,0h-.8c0,0-1.9-.3-1.9-.3h-.7c0,0-2.3-.4-2.3-.4h-.6c0,0-1.8-.3-1.8-.3h-.4s-1.3-.2-1.3-.2h-.4s-1.3-.2-1.3-.2h-1.5c0,0-.5,0-.5,0h-.6v-.2h0c0,0-.1,0-.1,0h0c0,0-.1,0-.1,0h0c0,0,0,0,0,0h0c0,0-.1,0-.1,0h0c0,0,0,0,0,0h0c0,0-.1,0-.1,0h0c0,0,0,0,0,0h0c0,0-.1,0-.1,0h0c0,0,0,0,0,0h0c0,0,0,0,0,0h0c0,0-.1,0-.1,0h0c0,0-.1,0-.1,0h0c0,0-.2-.1-.2-.1h0c0,0-.1,0-.1,0h0c0,0,0,0,0,0h0c0,0-.1,0-.1,0h0c0,0-.1,0-.1,0h0c0,0-.1,0-.1,0h0c0,0-.1,0-.1,0h0c0,0-.1,0-.1,0h0c0,0-.1,0-.1,0h0c0,0-.1,0-.1,0h0c0,0-.1,0-.1,0h0c0,0,0,0,0,0h0c0,0-.1,0-.1,0h0c0,0,0,0,0,0l-.5-.4-1-.7-1.7-1.2-1.8-1-1.4-.5h0s.1.4.1.4v1.4c.1,0,.1,1.4.1,1.4h-.2c0,0-.2,0-.2,0h0c0,0,0,0,0,0h0c0,0-.1,0-.1,0h0c0,0-.6-.4-.6-.4l-1.1-.6-1.2-.6-1.8-1.2-.9-.8-.6-.6-.4-.7h0c0,0,.1,0,.1,0h0c0,0,0,0,0,0h0c0,0,.3-.3.3-.3l1.1-.6.6-.3,2.3-1.1,4.4-1.6,1.3-.4h.6c0-.1,1.8-1,1.8-1l-.2-.4-.9-.2-1.9-.2h-1.8s-2.7.2-2.7.2l-2.5.3h-.7s-1.3.2-1.3.2h-1.3s-.7,0-.7,0h-1.4"/>
  <path id="path935" class="st2" d="M836.4,270.5l.2.9.2.3.3.6.4.4,1,1,1.2.8.7.5h.3s.2.2.2.2l3,1.4,1.6.4,7.7,2.4,1.5.3,1.2.3,2,.3,1.5.8h0c0,0-.5,1-.5,1l-.2.8-.5,1.1v.7s-.3.9-.3.9v.9c0,0-.4,1.5-.4,1.5v.5c0,0,0,.8,0,.8l-1.5,5.7-.3.6-.6,1.6-.2.2-.3.8-.9,1.9-.2.7-.6,1.1-.3.8-.6.8-.7,1.4-.3.4v.5c-.1,0-.8,1.1-.8,1.1l-.2.7-.3.4v.2s-.4,1-.4,1v.4c0,0-.6.9-.6.9v.9c0,0,.2.9.2.9l.6.4,2-.5,1.6-.9.7-.7,1.1-.7.8-.8,1.2-.9.3-.4,1-.9,2.2-2,1.5-2,.3-.2,1.2-1.2.4-.6.4-.4,1-1.9.4-.5.2-.6.6-.9.2-.4.3-.3.2-.6.4-.6.4-1,.6-1.1.7-1.9.5-.7.3-.6.4-.4,1-1.2,1.3-.9h.8c0,0,.6.2.6.2l1,1h.3c0,0,.5.6.5.6l.4.2.2.3,1.4,1.1.3.3,1.1.8.3.4.6.5,1,1.2.6.5.3.6.7.9.3.5,1.2,1.6.3.7.4.6.2.5.4.6.2.9.4.7v.4c0,0,.9,1.7.9,1.7l.3.8.3.5v.4c.1,0,.3,0,.3,0l.5.7.3.2h.5s.4,0,.4,0l.9-.9v-.3s.7-1.6.7-1.6l.3-2.4v-1.7s.2-3.3.2-3.3v-.4c-.1,0-.4-2.6-.4-2.6v-1c-.1,0-.5-.7-.5-.7v-.3s-.6-1.5-.6-1.5l-.3-1.2-.6-1.3v-.4c0,0-.5-.5-.5-.5l-.4-.7-1-1.4-.3-.7-.8-1-.3-.5-.4-.2-.3-.4-.5-.7-.6-.6.6-.4.8-.2,2-.9h.6c0-.1.7-.5.7-.5h.3s1.1-.4,1.1-.4l2.1-.7,1.1-.3,1.3-.8.6-.3h.3s1.3-.6,1.3-.6l4.3-1.2.9-.2h.7c0,0,.9-.3.9-.3h1c0-.1,1.8-.8,1.8-.8l.7-.5.4-.7v-.9s-.3-.2-.3-.2l-.2-.3h-.3c0-.1-1.5-1-1.5-1l-1.5-.3-1.1-.4h-1.2c0-.1-1.8-.4-1.8-.4h-.5c0,0-1.3,0-1.3,0h-2.8c0,0-.8,0-.8,0l-1.5.2h-.9c0,0-1.4.4-1.4.4h-.5s-2.8.4-2.8.4h-1c0,0-1.4.5-1.4.5h-1.2c0,.1-1.7.4-1.7.4h-.8c0-.1-.5-.5-.5-.5l-.2-.6-.2-1v-.9c0,0,.6-1.7.6-1.7l.3-1.4.4-1.6v-.5s.6-2.1.6-2.1v-.3s.7-2.1.7-2.1l.5-2,.5-.9v-.4c0,0,1.1-2,1.1-2l1.2-1.6.9-1.5.6-1.8v-1s-.5-.6-.5-.6h-.9s-1,.2-1,.2l-4.3,1.7h-.6c0,.1-1,.6-1,.6h-.2s-.1.2-.1.2h-.4c0,.1-.9.7-.9.7l-.5.5-2.9,2.4-.8,1-1.3,1.4-1.1,1.6h-.2c0,0-.9,1.4-.9,1.4l-.7,1.7-.7,1.7v1.1c0,0-.4,1.5-.4,1.5v.2c0,0-.4,3.6-.4,3.6l-.2,1.1-.5.9h-.2c0,0-.3.3-.3.3h-1.1s-1-.3-1-.3l-2.5-.6-2.8-.3-2.4.2-1.3.2h-.8c0,.1-1.6.4-1.6.4l-1.6.2-1.8.4h-.7c0,0-2.1.4-2.1.4h-1.5c0,0-1,0-1,0h0c0-.1-.4,0-.4,0l-1.6-.2h-.2c0,0-.3,0-.3,0l-1.2-.2h-.3s-.7-.2-.7-.2h-.6c0,0-.2,0-.2,0h-.7s-1.2.3-1.2.3l-.6.8v.9"/>
  <path id="path937" class="st0" d="M841.4,54c-82.2,0-149.1,66.5-149.1,148.3s66.9,148.3,149.1,148.3,149.1-66.5,149.1-148.3-66.9-148.3-149.1-148.3ZM931.9,118.5c-13.2-3.7-34.9-7-60.1-8.5-4.6-13.2-10.2-23.4-16.5-29.8,30.1,3.3,57,17.4,76.6,38.3ZM832.2,79.8c3.1-.2,6.1-.4,9.3-.4s4.9,0,7.3.2c7.1,4.7,13.6,15.3,18.9,30.1-8.5-.4-17.3-.7-26.3-.7s-18.7.3-27.7.8c5.2-14.7,11.6-25.3,18.7-30ZM825.6,80.4c-6.1,6.4-11.7,16.6-16.3,29.6-23.4,1.5-44.4,4.5-58,8.1,19.2-20.2,45.1-34,74.2-37.7ZM747.5,122.4c11.3-3.4,32.6-7.4,60.8-9.2-2.5,7.7-4.7,16.3-6.5,25.6-30.4-1.7-51.9-5.4-59.9-9.2,1.8-2.4,3.7-4.8,5.7-7.1ZM740.6,273.3c6.5-3.5,28.2-8.7,60-11.3,1.5,9.1,3.4,17.5,5.7,25.2-29.4-1.5-51.1-4.7-61.3-8.2-1.5-1.8-2.9-3.7-4.3-5.7ZM748.6,283.3c13.2,3.5,34.9,5.9,58.5,7,4.5,14.6,10.1,26.1,16.6,33.5-29.8-4.3-56.1-19.1-75.1-40.5ZM943.6,271.4c-6.4-4.7-28.8-9.6-58-12.2-.4,1.3-.5,2.3-.4,3,31.8,2.9,52.7,8.3,56.7,11.6-1,1.3-2,2.7-3,3.9-6.8,3-22.6,6.1-45.7,8.1.4,1,.8,2,1.3,3,16.4-1.4,31.3-3.5,40.7-6.5-19.5,22.4-46.9,37.8-77.9,41.7,4.8-5.5,9.2-13.2,13-22.9-1,.9-2,2-3.3,3.1-.9.7-2.4,2.1-4.1,3.6-3.6,7.5-7.7,13.2-11.9,16.8-3.1.2-6.3.4-9.4.4s-7.7-.2-11.4-.5c-7.1-6.1-13.4-18.1-18.4-34.1,9.6.4,19.4.6,29,.6s8.6,0,13.2-.1c.1-.9.3-2,.4-3.1-4.4,0-8.9.1-13.6.1-10.6,0-20.7-.2-30-.6-2.3-7.8-4.3-16.4-5.9-25.7,11.1-.8,23.4-1.3,36.6-1.3s16.7.2,24.5.6c.4-1,.8-2,1.2-3-8.3-.4-16.9-.7-25.7-.7-12.6,0-25.2.5-37.1,1.4-.8-4.8-1.4-9.7-2-14.8-1,1-2.3,1.9-3.9,2.7.5,4.2,1.1,8.4,1.7,12.4-28.7,2.4-52.5,6.9-61.1,12-10.6-15.6-17.8-33.8-20.2-53.4,12.9,7.5,40.4,12.8,72.3,15.5.2-1.1.3-2.1.4-3-37-3.1-63.4-9.5-73.2-16.3-.3-3.6-.5-7.3-.5-11.1,5.3-3.9,16.1-7.7,31.2-10.8-.5-.9-1.1-1.9-1.6-2.8-12.9,2.7-23.2,6.1-29.5,10,.7-24.8,8.8-47.8,22.2-66.9,9.5,4.9,33.7,8.2,61.2,9.7-1.9,10.6-3.4,22.1-4.3,34.2,1.4,0,2.7-.2,4-.3.9-11.9,2.3-23.2,4.2-33.7,11.6.6,23.6.9,35.4.9s12.4,0,19-.3c0-1.1,0-2.1.2-3.1-6.1.2-12.5.3-19.2.3-12.5,0-24.2-.3-34.8-.9,1.9-9.5,4.1-18.3,6.7-26,9-.5,18.6-.8,28.8-.8s18.8.3,27.4.7c.8,2.3,1.5,4.8,2.2,7.3.9-1.6,1.9-3.1,2.9-3.9-.3-1-.6-2.1-1-3.1,30.2,1.9,52.5,6.2,63,9.8,1.6,1.9,3.2,3.9,4.8,5.9-5.3,3.1-21.2,6.6-45.2,8.7.5,1,1,2,1.5,3,20.5-1.9,38.1-4.9,45.3-9.4,14,19.5,22.4,43.3,22.9,69-12-8.8-43.7-14.9-80.4-17.6-.4-6.4-.9-12.6-1.5-18.6-1,0-1.9-.2-2.6-.6-.5-.3-1.1-.8-1.7-1.2.8,6.5,1.3,13.3,1.7,20.2-9.7-.7-19.7-1-29.7-1.2.6.3,1.2.7,2,1.1.6.3,1.2,1.1,1.9,2,9.1.2,17.8.6,26,1.1.3,5.9.4,11.9.4,18.1,0,9.4-.4,18.5-1,27.4-12.4.8-25.7,1.3-39.9,1.3s-22.8-.3-33.3-.9c-.2,1-.4,2-.5,3,11.1.6,22.5,1,33.8,1s26.8-.4,39.7-1.3c-.3,3.6-.7,7.2-1.1,10.7,1.3-.8,2.7-1.5,4.1-2.3,0,0,.1,0,.2,0,.3-2.8.6-5.6.8-8.5,36.2-2.7,67.7-8.6,80.3-17.2-2.3,20.3-9.7,39.1-20.8,55.2h0ZM884.3,230.4c.6-8.7.9-17.8.9-27.1s-.2-12-.4-17.8c43,3.2,72.7,10.8,80.3,18.6,0,2.7-.2,5.4-.4,8-8.2,7.6-37.8,15.1-80.4,18.3"/>
  <g id="layer2">
    <g id="text1017" class="st1">
      <g class="st1">
        <path d="M707.2,402.7c0-6.6,2.4-12.2,7.2-17,4.8-4.7,10.6-7.1,17.3-7.1s12.4,2.4,17.1,7.1c4.8,4.8,7.2,10.5,7.2,17.2s-2.4,12.4-7.2,17.1c-4.8,4.7-10.7,7.1-17.5,7.1s-11.5-2.1-16.3-6.3c-5.3-4.6-7.9-10.7-7.9-18.2ZM714.3,402.8c0,5.2,1.7,9.4,5.2,12.8,3.5,3.3,7.4,5,12,5s9-1.7,12.4-5.1c3.4-3.4,5.1-7.6,5.1-12.5s-1.7-9.2-5-12.5c-3.3-3.4-7.4-5.1-12.3-5.1s-9,1.7-12.3,5.1c-3.4,3.4-5,7.5-5,12.4Z"/>
        <path d="M803,382v8.4c-4.1-3.4-8.3-5.1-12.7-5.1s-8.9,1.7-12.1,5.2c-3.3,3.4-5,7.6-5,12.6s1.7,9,5,12.4c3.3,3.4,7.4,5.1,12.2,5.1s4.6-.4,6.3-1.2c1-.4,2-.9,3-1.6,1-.7,2.1-1.5,3.3-2.5v8.5c-4,2.3-8.3,3.4-12.7,3.4-6.7,0-12.4-2.3-17.1-7-4.7-4.7-7.1-10.4-7.1-17s2-11.3,5.9-15.9c4.8-5.7,11.1-8.6,18.8-8.6s8.3,1.1,12.2,3.4Z"/>
        <path d="M841.3,386.1h-18.8v11.2h18.2v6.6h-18.2v15.6h18.8v6.6h-25.8v-46.8h25.8v6.6Z"/>
        <path d="M881.6,414.9h-20l-5.2,11.4h-7.6l23.1-49.7,22.3,49.7h-7.7l-4.9-11.4ZM878.7,408.3l-6.9-15.9-7.3,15.9h14.2Z"/>
        <path d="M903.6,426.3v-50l34.1,35.7v-32.5h7.1v49.6l-34.1-35.6v32.7h-7.1Z"/>
        <path d="M982.2,426.3v-46.8h7c3.1,0,5.6.2,7.5.7,1.9.5,3.5,1.3,4.8,2.5,1.3,1.2,2.4,2.7,3.1,4.5.8,1.8,1.2,3.6,1.2,5.5,0,3.4-1.3,6.2-3.8,8.5,2.5.8,4.4,2.3,5.9,4.5,1.5,2.1,2.2,4.5,2.2,7.3s-1.3,6.7-3.9,9.3c-1.6,1.6-3.3,2.6-5.2,3.2-2.1.6-4.8.9-8,.9h-10.7ZM989.2,399.6h2.2c2.6,0,4.5-.6,5.8-1.7,1.2-1.2,1.8-2.9,1.8-5.1s-.6-3.9-1.9-5c-1.3-1.1-3.1-1.7-5.5-1.7h-2.5v13.6ZM989.2,419.7h4.4c3.2,0,5.5-.6,7-1.9,1.6-1.4,2.4-3.1,2.4-5.2s-.8-3.7-2.3-5.1c-1.5-1.4-4.1-2-7.9-2h-3.6v14.1Z"/>
        <path d="M1029.5,379.5v46.8h-7.1v-46.8h7.1Z"/>
        <path d="M1041.9,402.7c0-6.6,2.4-12.2,7.2-17,4.8-4.7,10.6-7.1,17.3-7.1s12.4,2.4,17.1,7.1c4.8,4.8,7.2,10.5,7.2,17.2s-2.4,12.4-7.2,17.1c-4.8,4.7-10.7,7.1-17.5,7.1s-11.5-2.1-16.3-6.3c-5.3-4.6-7.9-10.7-7.9-18.2ZM1049,402.8c0,5.2,1.7,9.4,5.2,12.8,3.5,3.3,7.4,5,12,5s9-1.7,12.4-5.1c3.4-3.4,5.1-7.6,5.1-12.5s-1.7-9.2-5-12.5c-3.3-3.4-7.4-5.1-12.3-5.1s-9,1.7-12.3,5.1c-3.4,3.4-5,7.5-5,12.4Z"/>
        <path d="M1103.2,426.3v-46.8h9.8c4.7,0,8.4.5,11.1,1.4,2.9.9,5.6,2.5,8,4.6,4.8,4.4,7.2,10.2,7.2,17.4s-2.5,13-7.5,17.4c-2.5,2.2-5.2,3.8-7.9,4.6-2.6.9-6.3,1.3-11,1.3h-9.7ZM1110.3,419.7h3.2c3.2,0,5.8-.3,7.9-1,2.1-.7,4-1.8,5.7-3.4,3.5-3.2,5.2-7.3,5.2-12.4s-1.7-9.3-5.2-12.5c-3.1-2.9-7.6-4.3-13.7-4.3h-3.2v33.5Z"/>
        <path d="M1158.9,379.5v46.8h-7.1v-46.8h7.1Z"/>
        <path d="M1176,379.5l12.9,32.4,13.1-32.4h7.7l-21,50.3-20.5-50.3h7.7Z"/>
        <path d="M1244.9,386.1h-18.8v11.2h18.2v6.6h-18.2v15.6h18.8v6.6h-25.8v-46.8h25.8v6.6Z"/>
        <path d="M1273.6,406.4l14.5,19.9h-8.6l-13.4-19.1h-1.3v19.1h-7.1v-46.8h8.3c6.2,0,10.6,1.2,13.4,3.5,3,2.6,4.5,6,4.5,10.2s-1,6.2-2.8,8.5c-1.9,2.4-4.4,3.9-7.5,4.6ZM1264.8,401h2.2c6.7,0,10-2.6,10-7.7s-3.3-7.2-9.8-7.2h-2.5v14.8Z"/>
        <path d="M1325.1,386.5l-5.7,3.4c-1.1-1.9-2.1-3.1-3.1-3.6-1-.6-2.3-1-3.9-1s-3.6.6-4.9,1.7c-1.3,1.1-1.9,2.5-1.9,4.1s1.7,4.1,5.1,5.5l4.7,1.9c3.8,1.5,6.6,3.4,8.3,5.6s2.6,4.9,2.6,8.1-1.4,7.9-4.3,10.7c-2.9,2.8-6.5,4.2-10.8,4.2s-7.4-1.2-10.1-3.6c-2.6-2.4-4.2-5.8-4.9-10.2l7.1-1.6c.3,2.7.9,4.6,1.7,5.7,1.5,2,3.6,3,6.4,3s4-.7,5.5-2.2,2.2-3.3,2.2-5.6-.1-1.7-.4-2.5c-.3-.8-.6-1.5-1.2-2.1-.5-.6-1.2-1.2-2.1-1.8s-1.9-1.1-3-1.6l-4.5-1.9c-6.4-2.7-9.6-6.7-9.6-11.9s1.3-6.5,4-8.8c2.7-2.4,6-3.6,10-3.6s9.6,2.6,12.6,7.9Z"/>
        <path d="M1345.4,379.5v46.8h-7.1v-46.8h7.1Z"/>
        <path d="M1373.1,386.1v40.1h-7.1v-40.1h-10.8v-6.6h28.5v6.6h-10.7Z"/>
        <path d="M1406.1,406.1l-15.3-26.6h8.1l10.7,18.7,10.7-18.7h8.1l-15.3,26.6v20.2h-7.1v-20.2Z"/>
      </g>
      <g class="st1">
        <path d="M716.6,457.1v46.8h-7.1v-46.8h7.1Z"/>
        <path d="M731.3,503.8v-50l34.1,35.7v-32.5h7.1v49.6l-34.1-35.6v32.7h-7.1Z"/>
        <path d="M810.6,463.7h-16.3v11.2h15.7v6.6h-15.7v22.3h-7.1v-46.8h23.4v6.6Z"/>
        <path d="M820,480.2c0-6.6,2.4-12.2,7.2-17,4.8-4.7,10.6-7.1,17.3-7.1s12.4,2.4,17.1,7.1c4.8,4.8,7.2,10.5,7.2,17.2s-2.4,12.4-7.2,17.1c-4.8,4.7-10.7,7.1-17.5,7.1s-11.5-2.1-16.3-6.3c-5.3-4.6-7.9-10.7-7.9-18.2ZM827.2,480.3c0,5.2,1.7,9.4,5.2,12.8,3.5,3.3,7.4,5,12,5s9-1.7,12.4-5.1c3.4-3.4,5.1-7.6,5.1-12.5s-1.7-9.2-5-12.5c-3.3-3.4-7.4-5.1-12.3-5.1s-9,1.7-12.3,5.1c-3.4,3.4-5,7.5-5,12.4Z"/>
        <path d="M897.2,483.9l14.5,19.9h-8.6l-13.4-19.1h-1.3v19.1h-7.1v-46.8h8.3c6.2,0,10.6,1.2,13.4,3.5,3,2.6,4.5,6,4.5,10.2s-.9,6.2-2.8,8.5c-1.9,2.4-4.4,3.9-7.5,4.6ZM888.4,478.5h2.2c6.7,0,10-2.6,10-7.7s-3.3-7.2-9.8-7.2h-2.5v14.8Z"/>
        <path d="M920.6,503.8l9.8-50.3,16.1,36.4,16.6-36.4,8.8,50.3h-7.2l-4.5-28.2-13.8,30.4-13.5-30.4-5,28.3h-7.3Z"/>
        <path d="M1012.9,492.5h-20l-5.2,11.4h-7.6l23.1-49.7,22.3,49.7h-7.7l-4.9-11.4ZM1010,485.8l-6.9-15.9-7.3,15.9h14.2Z"/>
        <path d="M1045.2,463.7v40.1h-7.1v-40.1h-10.8v-6.6h28.5v6.6h-10.7Z"/>
        <path d="M1072.8,457.1v46.8h-7.1v-46.8h7.1Z"/>
        <path d="M1085.3,480.2c0-6.6,2.4-12.2,7.2-17,4.8-4.7,10.6-7.1,17.3-7.1s12.4,2.4,17.1,7.1c4.8,4.8,7.2,10.5,7.2,17.2s-2.4,12.4-7.2,17.1c-4.8,4.7-10.6,7.1-17.5,7.1s-11.5-2.1-16.3-6.3c-5.3-4.6-7.9-10.7-7.9-18.2ZM1092.4,480.3c0,5.2,1.7,9.4,5.2,12.8,3.5,3.3,7.4,5,12,5s9-1.7,12.4-5.1c3.4-3.4,5.1-7.6,5.1-12.5s-1.7-9.2-5-12.5c-3.3-3.4-7.4-5.1-12.3-5.1s-9,1.7-12.3,5.1c-3.4,3.4-5,7.5-5,12.4Z"/>
        <path d="M1146.6,503.8v-50l34.1,35.7v-32.5h7.1v49.6l-34.1-35.6v32.7h-7.1Z"/>
        <path d="M1251.6,464l-5.7,3.4c-1.1-1.9-2.1-3.1-3.1-3.6-1-.6-2.3-1-3.9-1s-3.6.6-4.9,1.7c-1.3,1.1-1.9,2.5-1.9,4.1s1.7,4.1,5.1,5.5l4.7,1.9c3.8,1.5,6.6,3.4,8.3,5.6,1.8,2.2,2.6,4.9,2.6,8.1s-1.4,7.9-4.3,10.7c-2.9,2.8-6.5,4.2-10.8,4.2s-7.4-1.2-10.1-3.6c-2.6-2.4-4.2-5.8-4.9-10.2l7.1-1.6c.3,2.7.9,4.6,1.7,5.7,1.5,2,3.6,3,6.4,3s4-.7,5.5-2.2,2.2-3.3,2.2-5.6-.1-1.7-.4-2.5c-.3-.8-.6-1.5-1.2-2.1-.5-.6-1.2-1.2-2.1-1.8s-1.9-1.1-3-1.6l-4.5-1.9c-6.4-2.7-9.6-6.7-9.6-11.9s1.3-6.5,4-8.8c2.7-2.4,6-3.6,10-3.6s9.6,2.6,12.6,7.9Z"/>
        <path d="M1273.9,483.6l-15.3-26.6h8.1l10.7,18.7,10.7-18.7h8.1l-15.3,26.6v20.2h-7.1v-20.2Z"/>
        <path d="M1330.3,464l-5.7,3.4c-1.1-1.9-2.1-3.1-3.1-3.6-1-.6-2.3-1-3.9-1s-3.6.6-4.9,1.7c-1.3,1.1-1.9,2.5-1.9,4.1s1.7,4.1,5.1,5.5l4.7,1.9c3.8,1.5,6.6,3.4,8.3,5.6,1.8,2.2,2.6,4.9,2.6,8.1s-1.4,7.9-4.3,10.7c-2.9,2.8-6.5,4.2-10.8,4.2s-7.4-1.2-10.1-3.6c-2.6-2.4-4.2-5.8-4.9-10.2l7.1-1.6c.3,2.7.9,4.6,1.7,5.7,1.5,2,3.6,3,6.4,3s4-.7,5.5-2.2,2.2-3.3,2.2-5.6-.1-1.7-.4-2.5c-.3-.8-.6-1.5-1.2-2.1-.5-.6-1.2-1.2-2.1-1.8s-1.9-1.1-3-1.6l-4.5-1.9c-6.4-2.7-9.6-6.7-9.6-11.9s1.3-6.5,4-8.8c2.7-2.4,6-3.6,10-3.6s9.6,2.6,12.6,7.9Z"/>
        <path d="M1357.3,463.7v40.1h-7.1v-40.1h-10.8v-6.6h28.5v6.6h-10.7Z"/>
        <path d="M1403.7,463.7h-18.8v11.2h18.2v6.6h-18.2v15.6h18.8v6.6h-25.8v-46.8h25.8v6.6Z"/>
        <path d="M1414.9,503.8l9.8-50.3,16.1,36.4,16.6-36.4,8.8,50.3h-7.2l-4.5-28.2-13.8,30.4-13.5-30.4-5,28.3h-7.3Z"/>
      </g>
    </g>
  </g>
</svg>